<?xml version="1.0" encoding="utf-8"?>
<!-- Generator: Adobe Illustrator 16.0.3, SVG Export Plug-In . SVG Version: 6.00 Build 0)  -->
<!DOCTYPE svg PUBLIC "-//W3C//DTD SVG 1.1//EN" "http://www.w3.org/Graphics/SVG/1.1/DTD/svg11.dtd">
<svg version="1.1" id="Слой_1" xmlns="http://www.w3.org/2000/svg" xmlns:xlink="http://www.w3.org/1999/xlink" x="0px" y="0px"
	 width="48px" height="48px" viewBox="0 0 48 48" enable-background="new 0 0 48 48" xml:space="preserve">
<radialGradient id="path4112_1_" cx="-231.2656" cy="-150.606" r="12.2888" gradientTransform="matrix(1.644 0 0 -0.7562 405.0496 -75.7909)" gradientUnits="userSpaceOnUse">
	<stop  offset="0" style="stop-color:#000000"/>
	<stop  offset="1" style="stop-color:#000000;stop-opacity:0"/>
</radialGradient>
<path id="path4112" fill="url(#path4112_1_)" d="M45.053,38.1c0,5.133-9.045,9.293-20.203,9.293c-11.157,0-20.203-4.16-20.203-9.293
	l0,0c0-5.133,9.045-9.293,20.203-9.293C36.008,28.807,45.053,32.967,45.053,38.1z"/>
<radialGradient id="SVGID_1_" cx="-72.8477" cy="-14.3154" r="29.9923" gradientTransform="matrix(1 0 0 -1 91.0952 1.4004)" gradientUnits="userSpaceOnUse">
	<stop  offset="0" style="stop-color:#D3E9FF"/>
	<stop  offset="0.1552" style="stop-color:#D3E9FF"/>
	<stop  offset="0.75" style="stop-color:#4074AE"/>
	<stop  offset="1" style="stop-color:#36486C"/>
</radialGradient>
<path fill="url(#SVGID_1_)" stroke="#39396C" d="M43.96,23.485c0,10.71-8.683,19.392-19.39,19.392
	c-10.71,0-19.391-8.682-19.391-19.392c0-10.709,8.681-19.39,19.391-19.39C35.277,4.095,43.96,12.776,43.96,23.485z"/>
<radialGradient id="path4348_1_" cx="-73.6416" cy="-58.1074" r="32.6661" gradientTransform="matrix(0.986 0 0 -0.8478 94.1575 -40.3813)" gradientUnits="userSpaceOnUse">
	<stop  offset="0" style="stop-color:#FFFFFF"/>
	<stop  offset="1" style="stop-color:#FFFFFF;stop-opacity:0"/>
</radialGradient>
<path id="path4348" opacity="0.42" fill="url(#path4348_1_)" enable-background="new    " d="M35.558,15.271
	c0,5.133-4.839,9.293-10.809,9.293c-5.969,0-10.809-4.161-10.809-9.293s4.839-9.293,10.809-9.293
	C30.719,5.978,35.558,10.138,35.558,15.271z"/>
<path fill-opacity="0.71" d="M18.519,14.641l0.429-0.647l-0.643-0.484L18.519,14.641 M18.163,27.977l-0.572-1.131l-1.071-0.242
	l-0.572-1.535l-1.428,0.16l-1.213-0.888l-1.286,1.132v0.178c-0.389-0.112-0.867-0.127-1.214-0.34l-0.286-0.809v-0.889l-0.856,0.08
	c0.072-0.566,0.143-1.131,0.214-1.697h-0.5l-0.5,0.647l-0.5,0.242l-0.714-0.403l-0.072-0.89l0.143-0.97l1.071-0.807h0.857
	l0.143-0.486l1.071,0.242l0.786,0.971l0.143-1.618l1.357-1.131l0.499-1.212l1-0.404l0.571-0.808l1.285-0.244l0.644-0.969h-1.929
	l1.214-0.566h0.857l1.214-0.405l0.143-0.483l-0.429-0.405l-0.5-0.162l0.143-0.484l-0.357-0.728l-0.857,0.323l0.143-0.646
	l-0.999-0.566l-0.786,1.373l0.071,0.485l-0.785,0.324l-0.5,1.051l-0.214-0.97l-1.357-0.566l-0.215-0.727l1.786-1.051l0.786-0.728
	l0.071-0.889l-0.428-0.243l-0.572-0.081l-0.356,0.889c0,0-0.598,0.117-0.751,0.155c-1.961,1.807-5.923,5.708-6.844,13.071
	c0.037,0.171,0.667,1.161,0.667,1.161l1.5,0.889l1.5,0.404l0.644,0.809l0.999,0.727l0.571-0.079l0.429,0.192v0.131l-0.571,1.535
	l-0.429,0.646l0.143,0.324l-0.357,1.211l1.285,2.345l1.285,1.132l0.572,0.807l-0.072,1.699l0.429,0.969l-0.429,1.859
	c0,0-0.033-0.012,0.021,0.174c0.056,0.187,2.288,1.426,2.43,1.32c0.142-0.107,0.263-0.201,0.263-0.201l-0.143-0.402l0.571-0.566
	l0.215-0.566l0.928-0.324l0.714-1.778l-0.214-0.483l0.499-0.728l1.072-0.243l0.571-1.294l-0.143-1.614l0.857-1.214l0.143-1.212
	C20.489,29.174,19.326,28.576,18.163,27.977 M14.735,8.983l-0.358,0.889h0.715l0.357-0.808c0.308-0.218,0.615-0.437,0.928-0.646
	l0.715,0.243c0.475,0.323,0.951,0.646,1.428,0.969l0.714-0.646L18.448,8.66l-0.357-0.728L16.734,7.77l-0.071-0.404L16.02,7.528
	l-0.286,0.566l-0.357-0.728l-0.142,0.324l0.071,0.808L14.735,8.983 M26.518,5.993L24.66,5.265l-2.141,0.242l-2.643,0.727l-0.5,0.485
	l1.643,1.131v0.646l-0.643,0.646l0.857,1.699l0.57-0.324l0.716-1.132c1.103-0.341,2.092-0.728,3.141-1.212L26.518,5.993
	 M25.732,9.306L25.66,9.791l0.501,0.323l0.854-0.565l-0.427-0.485l-0.571,0.324L25.732,9.306 M28.445,12.783l-0.285-0.729
	l-0.501,0.163l0.144,0.888L28.445,12.783 M43.415,20.582L43.415,20.582l-0.535,0.606c-0.327-0.386-0.696-0.711-1.069-1.051
	l-0.822,0.121l-0.75-0.848v1.049l0.643,0.487l0.428,0.484l0.571-0.646c0.144,0.269,0.286,0.539,0.429,0.808V22.4l-0.643,0.727
	l-1.18,0.809l-0.891,0.89l-0.572-0.648l0.285-0.727l-0.57-0.647l-0.965-2.061l-0.82-0.928l-0.215,0.241l0.322,1.173l0.606,0.687
	c0.347,0.999,0.688,1.955,1.144,2.911c0.705,0,1.369-0.075,2.07-0.164v0.566l-0.857,2.102l-0.785,0.889l-0.643,1.376v2.263
	l0.215,0.889l-0.356,0.404l-0.787,0.485l-0.821,0.687l0.68,0.768l-0.93,0.811l0.18,0.522l-1.394,1.578h-0.928l-0.786,0.485h-0.5
	v-0.647l-0.213-1.295c-0.277-0.812-0.564-1.617-0.857-2.423c0-0.596,0.035-1.184,0.071-1.779l0.358-0.807l-0.502-0.971l0.037-1.334
	l-0.68-0.768l0.34-1.111l-0.553-0.627h-0.965l-0.321-0.363l-0.964,0.606l-0.393-0.446l-0.894,0.768
	c-0.606-0.686-1.213-1.373-1.821-2.061L25.1,23.531l0.643-0.969l-0.355-0.404l0.783-1.86c0.645-0.802,1.318-1.571,2-2.343
	l1.214-0.324l1.357-0.161l0.928,0.243l1.321,1.332l0.465-0.524l0.641-0.081l1.215,0.404h0.93l0.642-0.566l0.286-0.404l-0.645-0.404
	l-1.07-0.08c-0.299-0.413-0.574-0.847-0.928-1.213l-0.357,0.161l-0.143,1.052l-0.644-0.728l-0.141-0.809l-0.714-0.564H32.24
	l0.715,0.807l-0.286,0.728l-0.571,0.161l0.357-0.727l-0.645-0.323l-0.569-0.646l-1.072,0.241l-0.142,0.323l-0.644,0.405
	l-0.356,0.889l-0.893,0.444l-0.394-0.444h-0.427v-1.455l0.928-0.486h0.714l-0.144-0.565l-0.57-0.566l0.963-0.202l0.536-0.606
	l0.428-0.728h0.786l-0.215-0.565l0.501-0.323v0.647l1.071,0.241l1.069-0.888l0.072-0.405l0.928-0.646
	c-0.336,0.042-0.672,0.072-1,0.162v-0.728l0.356-0.809h-0.356l-0.784,0.727l-0.215,0.405l0.215,0.566l-0.357,0.969l-0.571-0.323
	l-0.499-0.565l-0.786,0.565l-0.286-1.293l1.356-0.889V8.902l0.858-0.565l1.355-0.324l0.93,0.324l1.713,0.323l-0.428,0.484h-0.929
	l0.929,0.97l0.713-0.808l0.217-0.355c0,0,2.738,2.454,4.304,5.138C42.682,16.774,43.415,19.939,43.415,20.582L43.415,20.582z
	 M17.305,6.962l0.357-0.323l0.715-0.162c0.489-0.238,0.98-0.398,1.499-0.566l-0.285-0.485l-0.922,0.132l-0.435,0.434l-0.718,0.104
	l-0.639,0.299l-0.31,0.15l-0.19,0.254L17.305,6.962 M16.591,9.629l0.714,0.484h0.572V9.548l-0.714-0.323L16.591,9.629 M28.73,12.62
	l-0.143,0.97l0.785-0.162l0.57-0.565l-0.5-0.485c-0.166-0.447-0.359-0.865-0.569-1.293h-0.429v0.484l0.285,0.323V12.62"/>
<radialGradient id="SVGID_2_" cx="-79.667" cy="-31.2251" r="40.694" fx="-79.367" fy="-30.9011" gradientTransform="matrix(1.0185 0 0 -0.9475 100.0378 -12.9866)" gradientUnits="userSpaceOnUse">
	<stop  offset="0" style="stop-color:#FFFFFF"/>
	<stop  offset="0.3793" style="stop-color:#FEFEFE"/>
	<stop  offset="1" style="stop-color:#1D1D1D"/>
</radialGradient>
<path fill="url(#SVGID_2_)" d="M18.317,14.439l0.429-0.647l-0.643-0.484L18.317,14.439 M14.533,8.781L14.175,9.67h0.715l0.357-0.808
	c0.308-0.218,0.615-0.437,0.928-0.647l0.715,0.243c0.475,0.323,0.951,0.646,1.427,0.969l0.715-0.646l-0.786-0.323L17.889,7.73
	l-1.357-0.162l-0.071-0.404l-0.643,0.162l-0.286,0.565l-0.357-0.728l-0.142,0.323l0.071,0.809L14.533,8.781 M17.96,27.775
	l-0.571-1.133L16.318,26.4l-0.572-1.534l-1.428,0.161l-1.213-0.888l-1.286,1.13v0.179c-0.389-0.112-0.867-0.127-1.214-0.341
	L10.319,24.3v-0.889l-0.856,0.08c0.072-0.566,0.143-1.131,0.215-1.697h-0.5l-0.5,0.647l-0.5,0.241L7.463,22.28l-0.072-0.89
	l0.143-0.97l1.072-0.808h0.856l0.143-0.485l1.071,0.242l0.786,0.971l0.143-1.618l1.357-1.131l0.499-1.212l1-0.404l0.571-0.808
	l1.285-0.244l0.644-0.969h-1.929l1.214-0.566h0.857l1.214-0.405L18.46,12.5l-0.429-0.405l-0.5-0.162l0.143-0.485l-0.357-0.727
	l-0.857,0.323l0.143-0.646l-1-0.566l-0.785,1.374l0.071,0.485l-0.785,0.324l-0.5,1.051l-0.214-0.97l-1.357-0.566l-0.215-0.727
	l1.786-1.052l0.785-0.727l0.072-0.889l-0.428-0.243l-0.572-0.081L13.105,8.7c0,0-0.598,0.117-0.751,0.155
	c-1.961,1.807-5.923,5.708-6.844,13.071c0.037,0.171,0.667,1.161,0.667,1.161l1.5,0.889l1.499,0.404l0.644,0.81l0.999,0.727
	l0.571-0.08l0.429,0.193v0.129l-0.571,1.535l-0.429,0.647l0.143,0.324l-0.357,1.211l1.285,2.345l1.285,1.133l0.572,0.807
	l-0.072,1.697l0.429,0.969l-0.429,1.861c0,0-0.033-0.013,0.021,0.174c0.056,0.186,2.288,1.426,2.43,1.32
	c0.142-0.107,0.263-0.201,0.263-0.201l-0.143-0.404l0.571-0.565l0.215-0.565l0.928-0.325l0.714-1.778l-0.214-0.484l0.499-0.727
	l1.072-0.243l0.571-1.294l-0.143-1.615l0.857-1.213l0.143-1.212C20.287,28.972,19.124,28.374,17.96,27.775 M26.314,5.791
	l-1.856-0.728l-2.141,0.242l-2.643,0.727l-0.5,0.485l1.643,1.131v0.647l-0.643,0.646l0.857,1.699l0.57-0.324l0.716-1.131
	c1.103-0.341,2.092-0.728,3.141-1.212L26.314,5.791 M25.529,9.104l-0.071,0.484l0.501,0.323l0.855-0.565l-0.428-0.485l-0.572,0.324
	L25.529,9.104 M43.213,20.38L43.213,20.38l-0.535,0.606c-0.328-0.386-0.695-0.711-1.07-1.051l-0.821,0.121l-0.75-0.848v1.049
	l0.644,0.487l0.428,0.484l0.57-0.646c0.145,0.269,0.286,0.539,0.43,0.808v0.808l-0.644,0.727l-1.179,0.809l-0.893,0.891l-0.57-0.648
	l0.285-0.727l-0.57-0.647l-0.965-2.061l-0.821-0.928l-0.215,0.241l0.323,1.173l0.605,0.687c0.346,0.999,0.689,1.955,1.145,2.911
	c0.705,0,1.369-0.076,2.07-0.164v0.566l-0.857,2.102l-0.786,0.889l-0.642,1.376v2.263l0.215,0.889l-0.357,0.404l-0.787,0.485
	l-0.82,0.687l0.679,0.768l-0.929,0.811l0.179,0.522l-1.394,1.577h-0.928l-0.786,0.486h-0.5v-0.647l-0.213-1.296
	c-0.276-0.811-0.563-1.616-0.856-2.422c0-0.596,0.035-1.185,0.07-1.779l0.358-0.807l-0.501-0.972l0.035-1.334l-0.678-0.767
	l0.34-1.111l-0.554-0.627h-0.965l-0.321-0.363l-0.964,0.606l-0.393-0.446l-0.894,0.768c-0.605-0.687-1.213-1.373-1.82-2.061
	l-0.713-1.698l0.642-0.969l-0.356-0.404l0.784-1.86c0.646-0.802,1.318-1.571,2-2.343l1.214-0.324l1.357-0.161l0.928,0.243
	l1.321,1.332l0.465-0.524l0.642-0.081l1.215,0.404h0.928l0.643-0.566l0.286-0.404l-0.644-0.404l-1.071-0.08
	c-0.298-0.413-0.573-0.847-0.927-1.213l-0.358,0.161l-0.143,1.052L33.18,16.46l-0.141-0.809l-0.714-0.564h-0.287l0.715,0.807
	l-0.286,0.728l-0.57,0.161l0.356-0.727l-0.644-0.323l-0.57-0.646l-1.072,0.241l-0.142,0.323l-0.644,0.405l-0.356,0.889l-0.892,0.444
	l-0.395-0.444h-0.428v-1.455l0.929-0.486h0.714l-0.145-0.565l-0.569-0.566l0.963-0.202l0.536-0.606l0.428-0.728h0.786l-0.215-0.565
	l0.501-0.323v0.646l1.07,0.242l1.07-0.888l0.072-0.405l0.928-0.646c-0.336,0.042-0.672,0.072-1,0.162V9.832l0.357-0.808H33.18
	l-0.783,0.727l-0.215,0.405l0.215,0.566l-0.358,0.969l-0.571-0.323l-0.499-0.565l-0.786,0.565l-0.285-1.293l1.355-0.889V8.701
	l0.857-0.565l1.356-0.324l0.929,0.324l1.713,0.323l-0.426,0.484h-0.93l0.93,0.97l0.713-0.808l0.217-0.355
	c0,0,2.738,2.454,4.303,5.138C42.479,16.573,43.213,19.737,43.213,20.38L43.213,20.38z M17.103,6.76l0.357-0.323l0.715-0.162
	c0.489-0.238,0.98-0.398,1.499-0.566l-0.285-0.485l-0.922,0.132l-0.435,0.434l-0.719,0.104l-0.638,0.3l-0.31,0.15l-0.19,0.253
	L17.103,6.76 M16.389,9.428l0.714,0.485h0.572V9.347l-0.714-0.323L16.389,9.428 M28.529,12.419l-0.143,0.97l0.784-0.162l0.571-0.565
	l-0.5-0.485c-0.167-0.447-0.36-0.865-0.57-1.293h-0.428v0.484l0.285,0.323V12.419 M28.244,12.582l-0.286-0.729l-0.501,0.163
	l0.145,0.888L28.244,12.582"/>
<radialGradient id="SVGID_3_" cx="-75.4951" cy="-10.7407" r="43.5261" gradientTransform="matrix(1 0 0 -1 91.0952 1.4004)" gradientUnits="userSpaceOnUse">
	<stop  offset="0" style="stop-color:#FFFFFF"/>
	<stop  offset="1" style="stop-color:#FFFFFF;stop-opacity:0.1649"/>
</radialGradient>
<path display="none" fill="none" stroke="url(#SVGID_3_)" d="M42.975,23.486c0,10.165-8.24,18.407-18.406,18.407
	c-10.165,0-18.405-8.242-18.405-18.407c0-10.166,8.241-18.406,18.405-18.406C34.734,5.08,42.975,13.32,42.975,23.486z"/>
</svg>
