<?xml version="1.0" encoding="utf-8"?>
<!-- Generator: Adobe Illustrator 16.0.3, SVG Export Plug-In . SVG Version: 6.00 Build 0)  -->
<!DOCTYPE svg PUBLIC "-//W3C//DTD SVG 1.1//EN" "http://www.w3.org/Graphics/SVG/1.1/DTD/svg11.dtd">
<svg version="1.1" id="Слой_1" xmlns="http://www.w3.org/2000/svg" xmlns:xlink="http://www.w3.org/1999/xlink" x="0px" y="0px"
	 width="48px" height="48px" viewBox="-12 -12 48 48" enable-background="new -12 -12 48 48" xml:space="preserve">
<path d="M2-8h20c2.209,0,4,1.791,4,4v32c0,2.209-1.791,4-4,4H2c-2.209,0-4-1.791-4-4V-4C-2-6.209-0.209-8,2-8 M2-4v8h20v-8H2 M2,8v4
	h4V8H2 M10,8v4h4V8H10 M18,8v4h4V8H18 M2,16v4h4v-4H2 M10,16v4h4v-4H10 M18,16v4h4v-4H18 M2,24v4h4v-4H2 M10,24v4h4v-4H10 M18,24v4
	h4v-4H18z"/>
</svg>
