<?xml version="1.0" encoding="utf-8"?>
<!-- Generator: Adobe Illustrator 16.0.3, SVG Export Plug-In . SVG Version: 6.00 Build 0)  -->
<!DOCTYPE svg PUBLIC "-//W3C//DTD SVG 1.1//EN" "http://www.w3.org/Graphics/SVG/1.1/DTD/svg11.dtd">
<svg version="1.1" id="Слой_1" xmlns="http://www.w3.org/2000/svg" xmlns:xlink="http://www.w3.org/1999/xlink" x="0px" y="0px"
	 width="48px" height="48px" viewBox="0 0 48 48" enable-background="new 0 0 48 48" xml:space="preserve">
<path fill="none" d="M0,0h48v48H0V0z"/>
<g>
	<path d="M24,10.002c-3.592,0-6.504,2.913-6.504,6.505c0,1.797,0.728,3.424,1.905,4.601C20.579,22.284,22,23.012,22,27.017h4.002
		c0-4.004,1.42-4.732,2.598-5.909c1.178-1.178,1.906-2.804,1.906-4.601C30.506,12.914,27.594,10.002,24,10.002z"/>
	<path d="M40,4H8C5.79,4,4.02,5.79,4.02,8L4,44l8-8h28c2.21,0,4-1.79,4-4V8C44,5.79,42.21,4,40,4z M28.918,23.118
		c-0.84,0.721-1.408,1.711-1.408,2.793v2.4c0,1.403-0.656,1.964-1.779,2.206c-0.217,0.75-0.926,1.49-1.726,1.49
		c-0.8,0-1.508-0.74-1.725-1.49c-1.124-0.242-1.781-0.708-1.781-2.109v-2.402c0-1.082-0.56-2.167-1.52-2.888
		c-2.161-1.56-3.495-4.208-3.376-7.088c0.12-4.321,3.848-7.906,8.289-8.026c4.68-0.12,8.513,3.721,8.513,8.401
		C32.405,19.165,31.078,21.677,28.918,23.118z"/>
</g>
</svg>
