<?xml version="1.0" encoding="utf-8"?>
<!-- Generator: Adobe Illustrator 16.0.3, SVG Export Plug-In . SVG Version: 6.00 Build 0)  -->
<!DOCTYPE svg PUBLIC "-//W3C//DTD SVG 1.1//EN" "http://www.w3.org/Graphics/SVG/1.1/DTD/svg11.dtd">
<svg version="1.1" id="Слой_1" xmlns="http://www.w3.org/2000/svg" xmlns:xlink="http://www.w3.org/1999/xlink" x="0px" y="0px"
	 width="48px" height="48px" viewBox="488 226 48 48" enable-background="new 488 226 48 48" xml:space="preserve">
<path d="M511.782,226.006c-8.874,0.24-16.324,7.405-16.564,16.04c-0.239,5.756,2.429,11.048,6.746,14.166
	c1.918,1.439,3.036,3.611,3.036,5.771v4.799c0,2.802,1.313,3.733,3.56,4.22c0.433,1.498,1.849,2.975,3.447,2.975
	c1.598,0,3.016-1.477,3.448-2.975c2.246-0.486,3.557-1.608,3.557-4.41v-4.799c0-2.159,1.135-4.141,2.814-5.58
	c4.318-2.879,6.971-7.9,6.971-13.417C528.797,233.441,521.136,225.766,511.782,226.006z M521.19,252.194
	C518.838,254.545,516,256,516,264h-8c0-8-2.838-9.455-5.19-11.807c-2.354-2.352-3.81-5.603-3.81-9.193c0-7.18,5.82-13,13-13v0
	c7.18,0,13,5.82,13,13C525,246.591,523.544,249.841,521.19,252.194z"/>
</svg>
